/* XPM */
static char * piratepack_xpm[] = {
"30 32 2 1",
" 	c None",
".	c #000000",
"                              ",
"          .                   ",
"          .                   ",
"         ..                   ",
"        ..     .              ",
"        ..    .               ",
"       ..    ...   .          ",
"      ..   ...... .           ",
"   .       ....  ..           ",
"   ..     ....  ..            ",
"         ....  ...      .     ",
"      .  .... ...      .      ",
"  .  ... .. .....   ....      ",
"     ... . ......    ...      ",
"    ..... .......   ...       ",
"    .............   ...       ",
"    ... .........  ....       ",
"    . ........... .....       ",
"    . .................       ",
"     ..................       ",
"    ...................       ",
"    ....................      ",
"   .......... ...........     ",
"  ...........  .  ........    ",
"  ........... . .... .        ",
"  .  .......... .... .        ",
"      .... ............       ",
"       ......  .......        ",
"      ...    ............     ",
"     .. . . ............      ",
"    ......................  ..",
" ............................."};
